PathFileType  4	(X/Y/Z) C:\Users\antoi\Documents\MyRepositories\mobilecap\ResultsAnalysis
DataRate	CameraRate	NumFrames	NumMarkers	Units	OrigDataRate	OrigDataStartFrame	OrigNumFrames
100.0	100.0	4	51	mm	100.0	68	270
Frame#	Time	r_knee			r_shank_antsup			r_ankle			r_calc			r_5meta			r_toe			L_knee			L_shank_antsup			L_ankle			L_calc			L_5meta			L_toe			r_sh2			r_sh3			r_sh4			L_sh2			L_sh3			r_thigh1			r_thigh2			r_thigh3			r_thigh4			r_thigh5			L_thigh1			L_thigh2			L_thigh3			L_thigh4			r.ASIS			r.PSIS			L.ASIS			L.PSIS			C7			R_Shoulder			L_Shoulder			R_Sternum			L_Sternum			R_humerus			R_elbow_med			R_elbow_lat			R_forearm			R_wrist_radius			R_wrist_ulna			L_humerus			L_elbow_med			L_elbow_lat			L_forearm			L_wrist_radius			L_wrist_ulna			R_HJC			L_HJC			R_HJC_reg			L_HJC_reg			
		X1	Y1	Z1	X2	Y2	Z2	X3	Y3	Z3	X4	Y4	Z4	X5	Y5	Z5	X6	Y6	Z6	X7	Y7	Z7	X8	Y8	Z8	X9	Y9	Z9	X10	Y10	Z10	X11	Y11	Z11	X12	Y12	Z12	X13	Y13	Z13	X14	Y14	Z14	X15	Y15	Z15	X16	Y16	Z16	X17	Y17	Z17	X18	Y18	Z18	X19	Y19	Z19	X20	Y20	Z20	X21	Y21	Z21	X22	Y22	Z22	X23	Y23	Z23	X24	Y24	Z24	X25	Y25	Z25	X26	Y26	Z26	X27	Y27	Z27	X28	Y28	Z28	X29	Y29	Z29	X30	Y30	Z30	X31	Y31	Z31	X32	Y32	Z32	X33	Y33	Z33	X34	Y34	Z34	X35	Y35	Z35	X36	Y36	Z36	X37	Y37	Z37	X38	Y38	Z38	X39	Y39	Z39	X40	Y40	Z40	X41	Y41	Z41	X42	Y42	Z42	X43	Y43	Z43	X44	Y44	Z44	X45	Y45	Z45	X46	Y46	Z46	X47	Y47	Z47	X48	Y48	Z48	X49	Y49	Z49	X50	Y50	Z50	X51	Y51	Z51	

68	0.67000000	-1066.20816	788.33044	-454.72901	-1059.61161	702.01657	-437.10066	-1270.04827	406.40537	-450.62833	-1336.39027	354.56750	-494.79555	-1134.61172	351.45805	-408.41653	-1100.65609	373.24924	-469.96703	-1053.86101	786.18279	-719.40577	-1062.57259	671.83449	-740.08131	-1262.27194	408.00606	-740.75211	-1337.06736	361.73769	-710.99337	-1117.68538	344.44400	-780.02853	-1093.90650	368.97636	-715.70428	-1115.06440	603.44245	-432.22368	-1123.41209	738.45517	-418.06231	-1187.25671	642.91027	-413.58352	-1134.99822	722.01008	-758.91386	-1190.60936	614.46502	-766.36836	-1131.63953	1093.96513	-399.63070	-1076.65595	1000.87942	-418.99453	-1109.70842	948.20701	-394.38314	-1229.63803	1032.75924	-400.09537	-1162.44946	935.23036	-408.84462	-1119.57135	1100.25097	-739.92421	-1051.60750	980.37559	-733.34562	-1224.19390	1038.66891	-754.35013	-1146.21094	922.42661	-748.37317	-1150.04366	1225.05243	-438.73330	-1309.46619	1336.46588	-521.13862	-1141.90010	1221.15164	-696.41730	-1308.56392	1330.69827	-627.77333	-988.12722	1746.50135	-566.13785	-969.79204	1667.58171	-387.88846	-923.62520	1663.16872	-717.18041	-908.44120	1603.88689	-523.21654	-903.77969	1599.38213	-577.49931	-1121.84701	1459.82273	-276.21060	-1199.21802	1375.02282	-341.56765	-1182.95875	1390.72492	-255.49031	-1126.17011	1238.15438	-237.94952	-1090.77800	1127.33095	-250.44530	-1124.28648	1130.72658	-219.12234	-1041.26454	1457.31082	-851.60395	-1139.27559	1387.04454	-814.86518	-1103.81107	1390.91873	-879.33722	-1069.69889	1216.14987	-893.36582	-1044.65462	1120.27820	-878.20312	-1076.83687	1116.68156	-901.65766	-1257.57877	1185.14647	-447.31866	-1248.83543	1179.95061	-677.46049	-1244.80495	1190.08625	-474.09893	-1243.36702	1180.89545	-644.02196	
69	0.68000000	-1061.83514	785.65264	-454.61419	-1055.69134	699.60134	-438.01915	-1269.68869	406.34989	-450.81070	-1336.23395	354.71531	-494.84696	-1134.55370	350.86980	-408.44274	-1100.41245	372.69957	-469.73321	-1049.10113	783.96671	-719.57153	-1059.12407	670.01750	-740.77449	-1261.71938	408.25722	-740.85046	-1336.76379	362.08859	-710.80920	-1117.47004	343.77150	-780.39291	-1093.53259	368.40939	-715.83290	-1112.23683	601.73109	-432.55419	-1119.03524	736.74911	-418.41103	-1183.50091	640.90007	-414.10556	-1131.11163	721.12053	-758.92120	-1187.80198	614.54291	-766.14760	-1126.72266	1090.88845	-399.37824	-1070.86594	998.55028	-419.13062	-1105.39618	946.27686	-394.21321	-1224.44615	1030.15318	-399.85746	-1157.09044	932.54334	-410.01938	-1114.65070	1098.05597	-739.54697	-1045.87924	978.76404	-732.19902	-1219.01922	1036.88370	-755.29036	-1141.08536	920.79938	-749.42463	-1145.22609	1223.10485	-437.54169	-1305.07234	1333.95433	-519.88537	-1136.65488	1219.71146	-694.89537	-1304.01498	1328.15280	-626.56803	-987.16944	1746.10194	-564.23031	-968.78079	1667.18600	-386.38396	-920.84178	1663.56674	-714.43976	-906.06293	1604.25064	-520.92780	-901.37289	1599.60532	-575.41045	-1106.86905	1452.55441	-272.42005	-1178.51462	1362.70461	-336.54643	-1162.14462	1378.68987	-250.53187	-1093.23002	1230.49814	-236.17913	-1049.80792	1123.05950	-250.33391	-1082.33470	1123.10183	-218.70810	-1026.19984	1452.34742	-849.38604	-1120.22352	1375.29618	-813.09327	-1083.83628	1381.49146	-877.44901	-1035.64831	1209.36184	-889.34242	-1004.18586	1115.70073	-872.38523	-1035.47934	1109.60309	-896.46994	-1252.54650	1182.70419	-446.20653	-1243.40120	1177.87974	-676.34298	-1239.70191	1188.11342	-472.96474	-1238.02032	1178.88516	-642.66772	
70	0.69000000	-1057.21331	783.04247	-455.22888	-1051.72425	696.98288	-439.09723	-1269.19813	406.38278	-450.80622	-1336.07413	354.86426	-494.94398	-1134.48485	350.31820	-408.56318	-1100.15253	372.19021	-469.64185	-1044.09604	781.61955	-719.95106	-1055.49514	668.14435	-741.66054	-1261.11499	408.75575	-741.10958	-1336.28358	362.52120	-710.82391	-1117.26563	343.00348	-780.76418	-1093.17749	367.83384	-716.01332	-1109.22552	599.67457	-433.22616	-1114.68596	735.43558	-418.81506	-1179.71414	638.91708	-414.46203	-1126.99628	720.23762	-758.95319	-1184.91045	614.42830	-766.03356	-1121.99428	1087.63624	-398.80911	-1065.69148	995.73985	-419.09053	-1100.96242	944.53957	-393.28153	-1219.10730	1027.54713	-399.67156	-1152.17278	930.26368	-409.57060	-1111.01053	1095.04414	-741.30813	-1040.61735	976.46210	-732.40406	-1214.02712	1034.44882	-752.70522	-1135.45109	919.54614	-751.34857	-1140.10693	1221.66907	-436.14734	-1300.45962	1331.54822	-518.69583	-1131.53228	1218.02781	-693.50806	-1299.08520	1325.57238	-625.42539	-986.58979	1746.13498	-562.29138	-968.12605	1667.54513	-385.01508	-918.21386	1664.77679	-711.58237	-903.90635	1605.21753	-518.53475	-898.99459	1600.44260	-573.09909	-1091.14602	1446.84592	-268.48900	-1155.59212	1352.35211	-331.33773	-1139.69721	1368.51301	-245.27357	-1058.37851	1226.22083	-234.27080	-1006.83537	1122.71353	-250.55548	-1038.28703	1119.30279	-218.89042	-1010.83611	1449.07192	-847.20031	-1100.29617	1364.91672	-811.63509	-1063.31074	1374.10776	-875.76023	-1000.52344	1206.01550	-885.19569	-961.73550	1115.34783	-866.40700	-992.21643	1106.63878	-891.15238	-1247.19523	1180.69046	-444.82111	-1237.92707	1175.61860	-674.94749	-1234.59467	1186.11073	-471.77396	-1232.40951	1176.60983	-641.46248	
71	0.70000000	-1052.40501	780.52778	-456.57056	-1047.70936	694.42041	-440.10977	-1268.49038	406.36927	-450.76242	-1335.89608	355.04590	-495.01639	-1134.35051	349.86086	-408.55002	-1099.83778	371.66978	-469.65505	-1038.69838	779.40770	-720.90170	-1051.59293	666.26603	-742.80207	-1260.42010	409.44129	-741.16574	-1335.80712	363.14650	-710.90091	-1117.09395	342.13987	-780.96103	-1092.89352	367.24536	-716.30693	-1106.05554	597.51500	-434.04425	-1110.32582	733.81313	-419.58033	-1176.39041	638.27679	-414.61961	-1122.47764	719.32358	-759.29308	-1181.87566	614.12574	-766.34408	-1116.74606	1084.71901	-398.17621	-1061.46197	992.49829	-418.90523	-1095.84901	941.34920	-393.90787	-1213.69084	1024.98247	-399.59037	-1147.59332	928.07462	-408.06912	-1106.44533	1092.48954	-742.37946	-1035.88940	973.64627	-734.02604	-1208.94884	1031.74503	-748.88469	-1129.63049	917.82634	-751.78660	-1134.68864	1220.54754	-434.53338	-1295.47066	1329.16526	-517.62209	-1125.96231	1216.10710	-692.07847	-1293.77388	1322.97735	-624.39264	-986.39175	1746.53860	-560.44649	-967.70478	1668.64223	-383.76339	-915.75439	1666.73860	-708.37418	-901.90557	1606.75876	-516.04759	-896.53382	1602.09621	-570.49662	-1074.59838	1442.74435	-264.52071	-1131.86216	1343.82213	-325.72971	-1115.65896	1360.54912	-239.79113	-1021.96137	1225.62978	-232.39511	-962.29886	1126.76023	-250.90164	-992.32776	1120.45706	-218.84286	-995.26396	1447.58515	-845.09224	-1079.37904	1356.24002	-810.51532	-1042.21270	1368.95480	-874.52621	-964.65975	1206.34375	-880.81219	-917.81397	1119.71552	-860.16473	-947.35928	1108.22844	-885.38439	-1241.50960	1178.92391	-443.26790	-1232.02512	1173.18555	-673.36894	-1229.11588	1184.05680	-470.37193	-1226.41729	1174.21606	-640.16794	
